<?xml version="1.0" encoding="utf-8" standalone="no"?>
<!DOCTYPE svg PUBLIC "-//W3C//DTD SVG 1.1//EN"
  "http://www.w3.org/Graphics/SVG/1.1/DTD/svg11.dtd">
<svg xmlns:xlink="http://www.w3.org/1999/xlink" width="576.72pt" height="360pt" viewBox="0 0 576.72 360" xmlns="http://www.w3.org/2000/svg" version="1.1">
 <metadata>
  <rdf:RDF xmlns:dc="http://purl.org/dc/elements/1.1/" xmlns:cc="http://creativecommons.org/ns#" xmlns:rdf="http://www.w3.org/1999/02/22-rdf-syntax-ns#">
   <cc:Work>
    <dc:type rdf:resource="http://purl.org/dc/dcmitype/StillImage"/>
    <dc:date>2023-07-25T21:44:02.065723</dc:date>
    <dc:format>image/svg+xml</dc:format>
    <dc:creator>
     <cc:Agent>
      <dc:title>Matplotlib v3.5.2, https://matplotlib.org/</dc:title>
     </cc:Agent>
    </dc:creator>
   </cc:Work>
  </rdf:RDF>
 </metadata>
 <defs>
  <style type="text/css">*{stroke-linejoin: round; stroke-linecap: butt}</style>
 </defs>
 <g id="figure_1">
  <g id="patch_1">
   <path d="M 0 360 
L 576.72 360 
L 576.72 0 
L 0 0 
z
" style="fill: #ffffff"/>
  </g>
  <g id="axes_1">
   <g id="patch_2">
    <path d="M 72.09 320.4 
L 519.048 320.4 
L 519.048 43.2 
L 72.09 43.2 
z
" style="fill: #ffffff"/>
   </g>
   <g id="PolyCollection_1">
    <path d="M 92.406273 237.20309 
L 92.406273 245.456072 
L 95.247709 244.692342 
L 98.089146 243.933022 
L 100.930583 243.178582 
L 103.77202 242.426196 
L 106.613456 241.672617 
L 109.454893 240.91318 
L 112.29633 240.14544 
L 115.137767 239.368048 
L 117.979203 238.578422 
L 120.82064 237.771201 
L 123.662077 236.938675 
L 126.503514 236.074988 
L 129.34495 235.17938 
L 132.186387 234.270198 
L 135.027824 233.508859 
L 137.869261 233.035849 
L 140.710697 232.922545 
L 143.552134 233.181127 
L 146.393571 233.781679 
L 149.235008 234.628606 
L 152.076444 235.626223 
L 154.917881 236.694959 
L 157.759318 237.801737 
L 160.600755 238.95245 
L 163.442191 240.184486 
L 166.283628 241.547136 
L 169.125065 243.060115 
L 171.966502 244.743092 
L 174.807938 246.590393 
L 177.649375 248.574255 
L 180.490812 250.630309 
L 183.332249 252.647065 
L 186.173685 254.489055 
L 189.015122 256.001285 
L 191.856559 257.097048 
L 194.697996 257.777106 
L 197.539432 258.094167 
L 200.380869 258.093305 
L 203.222306 257.809819 
L 206.063743 257.260361 
L 208.905179 256.468872 
L 211.746616 255.476718 
L 214.588053 254.326219 
L 217.42949 253.006993 
L 220.270926 251.45835 
L 223.112363 249.618092 
L 225.9538 247.475089 
L 228.795236 245.052595 
L 231.636673 242.413943 
L 234.47811 239.615861 
L 237.319547 236.687606 
L 240.160983 233.641366 
L 243.00242 230.486302 
L 245.843857 227.274329 
L 248.685294 224.092597 
L 251.52673 221.025526 
L 254.368167 218.109367 
L 257.209604 215.35599 
L 260.051041 212.768659 
L 262.892477 210.35235 
L 265.733914 208.108566 
L 268.575351 206.015387 
L 271.416788 204.040022 
L 274.258224 202.106445 
L 277.099661 200.130164 
L 279.941098 198.037214 
L 282.782535 195.790867 
L 285.623971 193.386306 
L 288.465408 190.824316 
L 291.306845 188.089528 
L 294.148282 185.189249 
L 296.989718 182.143716 
L 299.831155 178.971902 
L 302.672592 175.691272 
L 305.514029 172.286737 
L 308.355465 168.734502 
L 311.196902 165.027602 
L 314.038339 161.180004 
L 316.879776 157.240889 
L 319.721212 153.283956 
L 322.562649 149.384847 
L 325.404086 145.615086 
L 328.245523 142.023775 
L 331.086959 138.63698 
L 333.928396 135.487 
L 336.769833 132.625919 
L 339.61127 130.07137 
L 342.452706 127.803644 
L 345.294143 125.784269 
L 348.13558 123.958928 
L 350.977017 122.267078 
L 353.818453 120.659344 
L 356.65989 119.087964 
L 359.501327 117.51057 
L 362.342764 115.901233 
L 365.1842 114.228609 
L 368.025637 112.472404 
L 370.867074 110.635009 
L 373.70851 108.755977 
L 376.549947 106.861656 
L 379.391384 104.94437 
L 382.232821 102.989058 
L 385.074257 101.013311 
L 387.915694 99.069408 
L 390.757131 97.182917 
L 393.598568 95.371454 
L 396.440004 93.65264 
L 399.281441 92.044695 
L 402.122878 90.564786 
L 404.964315 89.221708 
L 407.805751 88.006748 
L 410.647188 86.91031 
L 413.488625 85.944856 
L 416.330062 85.13697 
L 419.171498 84.52303 
L 422.012935 84.144984 
L 424.854372 84.053618 
L 427.695809 84.252313 
L 430.537245 84.677839 
L 433.378682 85.252206 
L 436.220119 85.878831 
L 439.061556 86.458975 
L 441.902992 86.914916 
L 444.744429 87.166982 
L 447.585866 87.144095 
L 450.427303 86.858128 
L 453.268739 86.350573 
L 456.110176 85.667309 
L 458.951613 84.847695 
L 461.79305 83.507307 
L 464.634486 82.199656 
L 467.475923 80.893319 
L 470.31736 79.562387 
L 473.158797 78.193173 
L 476.000233 76.777457 
L 478.84167 75.312628 
L 481.683107 73.800983 
L 484.524544 72.246367 
L 487.36598 70.654567 
L 490.207417 69.034472 
L 493.048854 67.392134 
L 495.890291 65.731284 
L 498.731727 64.052981 
L 498.731727 55.8 
L 498.731727 55.8 
L 495.890291 57.564417 
L 493.048854 59.311067 
L 490.207417 61.038879 
L 487.36598 62.744114 
L 484.524544 64.420707 
L 481.683107 66.059759 
L 478.84167 67.655471 
L 476.000233 69.203985 
L 473.158797 70.702992 
L 470.31736 72.155088 
L 467.475923 73.568481 
L 464.634486 74.956843 
L 461.79305 76.346068 
L 458.951613 77.767564 
L 456.110176 78.667802 
L 453.268739 79.431192 
L 450.427303 80.018355 
L 447.585866 80.383394 
L 444.744429 80.484799 
L 441.902992 80.310676 
L 439.061556 79.932084 
L 436.220119 79.428672 
L 433.378682 78.878141 
L 430.537245 78.379207 
L 427.695809 78.028427 
L 424.854372 77.903768 
L 422.012935 78.068433 
L 419.171498 78.519015 
L 416.330062 79.204698 
L 413.488625 80.083507 
L 410.647188 81.119033 
L 407.805751 82.284661 
L 404.964315 83.567897 
L 402.122878 84.978302 
L 399.281441 86.524555 
L 396.440004 88.197827 
L 393.598568 89.980911 
L 390.757131 91.855549 
L 387.915694 93.804084 
L 385.074257 95.808856 
L 382.232821 97.844257 
L 379.391384 99.857964 
L 376.549947 101.832344 
L 373.70851 103.782411 
L 370.867074 105.715797 
L 368.025637 107.606106 
L 365.1842 109.413739 
L 362.342764 111.136256 
L 359.501327 112.793903 
L 356.65989 114.417972 
L 353.818453 116.034347 
L 350.977017 117.685343 
L 348.13558 119.418674 
L 345.294143 121.283665 
L 342.452706 123.340812 
L 339.61127 125.644381 
L 336.769833 128.232798 
L 333.928396 131.125728 
L 331.086959 134.305492 
L 328.245523 137.719961 
L 325.404086 141.336798 
L 322.562649 145.129898 
L 319.721212 149.050121 
L 316.879776 153.025912 
L 314.038339 156.981597 
L 311.196902 160.843449 
L 308.355465 164.562265 
L 305.514029 168.124058 
L 302.672592 171.535775 
L 299.831155 174.821201 
L 296.989718 177.995415 
L 294.148282 181.040947 
L 291.306845 183.938826 
L 288.465408 186.66882 
L 285.623971 189.223627 
L 282.782535 191.618631 
L 279.941098 193.853061 
L 277.099661 195.931757 
L 274.258224 197.891468 
L 271.416788 199.806188 
L 268.575351 201.760438 
L 265.733914 203.830278 
L 262.892477 206.048536 
L 260.051041 208.43717 
L 257.209604 210.994718 
L 254.368167 213.716247 
L 251.52673 216.598537 
L 248.685294 219.629764 
L 245.843857 222.773725 
L 243.00242 225.946048 
L 240.160983 229.059631 
L 237.319547 232.062608 
L 234.47811 234.945869 
L 231.636673 237.697276 
L 228.795236 240.287618 
L 225.9538 242.66022 
L 223.112363 244.751794 
L 220.270926 246.539138 
L 217.42949 248.033427 
L 214.588053 249.296907 
L 211.746616 250.390312 
L 208.905179 251.324071 
L 206.063743 252.055906 
L 203.222306 252.544494 
L 200.380869 252.765938 
L 197.539432 252.703623 
L 194.697996 252.322292 
L 191.856559 251.576909 
L 189.015122 250.414801 
L 186.173685 248.835243 
L 183.332249 246.924978 
L 180.490812 244.839032 
L 177.649375 242.712906 
L 174.807938 240.658122 
L 171.966502 238.739077 
L 169.125065 236.983564 
L 166.283628 235.397286 
L 163.442191 233.9606 
L 160.600755 232.653818 
L 157.759318 231.427672 
L 154.917881 230.2448 
L 152.076444 229.099332 
L 149.235008 228.024366 
L 146.393571 227.099495 
L 143.552134 226.420426 
L 140.710697 226.082771 
L 137.869261 226.116467 
L 135.027824 226.509353 
L 132.186387 227.190067 
L 129.34495 228.018141 
L 126.503514 228.832175 
L 123.662077 229.613837 
L 120.82064 230.363902 
L 117.979203 231.08824 
L 115.137767 231.794576 
L 112.29633 232.488282 
L 109.454893 233.171956 
L 106.613456 233.846958 
L 103.77202 234.515742 
L 100.930583 235.182989 
L 98.089146 235.851954 
L 95.247709 236.525475 
L 92.406273 237.20309 
z
" clip-path="url(#p5cbc2299f8)" style="fill: #fae7f3; fill-opacity: 0.5"/>
   </g>
   <g id="PolyCollection_2">
    <path d="M 92.406273 242.467826 
L 92.406273 247.607201 
L 95.247709 247.901602 
L 98.089146 248.170335 
L 100.930583 248.41801 
L 103.77202 248.651251 
L 106.613456 248.876646 
L 109.454893 249.101582 
L 112.29633 249.335072 
L 115.137767 249.58365 
L 117.979203 249.851168 
L 120.82064 250.138293 
L 123.662077 250.437215 
L 126.503514 250.729374 
L 129.34495 250.973145 
L 132.186387 251.064942 
L 135.027824 251.226239 
L 137.869261 251.437093 
L 140.710697 251.740943 
L 143.552134 252.193695 
L 146.393571 252.831038 
L 149.235008 253.663471 
L 152.076444 254.682783 
L 154.917881 255.849212 
L 157.759318 257.120424 
L 160.600755 258.469645 
L 163.442191 259.877344 
L 166.283628 261.344264 
L 169.125065 262.874456 
L 171.966502 264.430328 
L 174.807938 265.972026 
L 177.649375 267.4928 
L 180.490812 268.998435 
L 183.332249 270.481125 
L 186.173685 271.900954 
L 189.015122 273.247855 
L 191.856559 274.578614 
L 194.697996 275.931131 
L 197.539432 277.298909 
L 200.380869 278.671223 
L 203.222306 280.053023 
L 206.063743 281.437376 
L 208.905179 282.835063 
L 211.746616 284.24587 
L 214.588053 285.664699 
L 217.42949 287.088194 
L 220.270926 288.505294 
L 223.112363 289.896665 
L 225.9538 291.219904 
L 228.795236 292.445423 
L 231.636673 293.575623 
L 234.47811 294.623537 
L 237.319547 295.585706 
L 240.160983 296.449011 
L 243.00242 297.184016 
L 245.843857 297.760758 
L 248.685294 298.178451 
L 251.52673 298.457429 
L 254.368167 298.630763 
L 257.209604 298.710378 
L 260.051041 298.700755 
L 262.892477 298.607321 
L 265.733914 298.43979 
L 268.575351 298.211021 
L 271.416788 297.922819 
L 274.258224 297.558754 
L 277.099661 297.115653 
L 279.941098 296.613262 
L 282.782535 296.075924 
L 285.623971 295.519871 
L 288.465408 294.946664 
L 291.306845 294.346958 
L 294.148282 293.712264 
L 296.989718 293.042581 
L 299.831155 292.358114 
L 302.672592 291.685548 
L 305.514029 291.042287 
L 308.355465 290.43197 
L 311.196902 289.853703 
L 314.038339 289.303923 
L 316.879776 288.783042 
L 319.721212 288.292307 
L 322.562649 287.832011 
L 325.404086 287.379883 
L 328.245523 286.924706 
L 331.086959 286.466267 
L 333.928396 286.014154 
L 336.769833 285.588422 
L 339.61127 285.198259 
L 342.452706 284.839909 
L 345.294143 284.508193 
L 348.13558 284.195141 
L 350.977017 283.896256 
L 353.818453 283.606395 
L 356.65989 283.32734 
L 359.501327 283.047687 
L 362.342764 282.747526 
L 365.1842 282.407483 
L 368.025637 282.034147 
L 370.867074 281.654126 
L 373.70851 281.298431 
L 376.549947 281.003549 
L 379.391384 280.794704 
L 382.232821 280.679186 
L 385.074257 280.65704 
L 387.915694 280.721805 
L 390.757131 280.863952 
L 393.598568 281.075357 
L 396.440004 281.337742 
L 399.281441 281.623137 
L 402.122878 281.911678 
L 404.964315 282.194342 
L 407.805751 282.460821 
L 410.647188 282.67826 
L 413.488625 282.820777 
L 416.330062 282.883597 
L 419.171498 282.87661 
L 422.012935 282.828275 
L 424.854372 282.769534 
L 427.695809 282.725863 
L 430.537245 282.707338 
L 433.378682 282.695791 
L 436.220119 282.666762 
L 439.061556 282.596504 
L 441.902992 282.460318 
L 444.744429 282.237279 
L 447.585866 281.922588 
L 450.427303 281.533272 
L 453.268739 281.087407 
L 456.110176 280.602411 
L 458.951613 280.09523 
L 461.79305 279.564962 
L 464.634486 279.067021 
L 467.475923 278.592912 
L 470.31736 278.129838 
L 473.158797 277.667972 
L 476.000233 277.201892 
L 478.84167 276.728119 
L 481.683107 276.244048 
L 484.524544 275.748643 
L 487.36598 275.242301 
L 490.207417 274.725905 
L 493.048854 274.199562 
L 495.890291 273.664012 
L 498.731727 273.120703 
L 498.731727 267.981328 
L 498.731727 267.981328 
L 495.890291 268.578262 
L 493.048854 269.167243 
L 490.207417 269.746813 
L 487.36598 270.316228 
L 484.524544 270.875373 
L 481.683107 271.423359 
L 478.84167 271.959781 
L 476.000233 272.485667 
L 473.158797 273.003614 
L 470.31736 273.517094 
L 467.475923 274.031519 
L 464.634486 274.556707 
L 461.79305 275.105447 
L 458.951613 275.686223 
L 456.110176 276.243611 
L 453.268739 276.778503 
L 450.427303 277.273943 
L 447.585866 277.712499 
L 444.744429 278.076086 
L 441.902992 278.347662 
L 439.061556 278.532016 
L 436.220119 278.650057 
L 433.378682 278.726473 
L 430.537245 278.784993 
L 427.695809 278.850065 
L 424.854372 278.939841 
L 422.012935 279.044227 
L 419.171498 279.137733 
L 416.330062 279.189396 
L 413.488625 279.170742 
L 410.647188 279.071861 
L 407.805751 278.897509 
L 404.964315 278.673546 
L 402.122878 278.432809 
L 399.281441 278.185582 
L 396.440004 277.940868 
L 393.598568 277.718507 
L 390.757131 277.546443 
L 387.915694 277.442932 
L 385.074257 277.416072 
L 382.232821 277.475366 
L 379.391384 277.627249 
L 376.549947 277.871647 
L 373.70851 278.201245 
L 370.867074 278.590787 
L 368.025637 279.003759 
L 365.1842 279.409122 
L 362.342764 279.780234 
L 359.501327 280.110478 
L 356.65989 280.419198 
L 353.818453 280.726273 
L 350.977017 281.043074 
L 348.13558 281.367791 
L 345.294143 281.705534 
L 342.452706 282.060771 
L 339.61127 282.441442 
L 336.769833 282.852696 
L 333.928396 283.298261 
L 331.086959 283.768921 
L 328.245523 284.244594 
L 325.404086 284.715667 
L 322.562649 285.182329 
L 319.721212 285.655773 
L 316.879776 286.158251 
L 314.038339 286.689451 
L 311.196902 287.248108 
L 308.355465 287.833795 
L 305.514029 288.450063 
L 302.672592 289.097798 
L 299.831155 289.773349 
L 296.989718 290.459311 
L 294.148282 291.128994 
L 291.306845 291.762194 
L 288.465408 292.358913 
L 285.623971 292.927647 
L 282.782535 293.477748 
L 279.941098 294.007666 
L 277.099661 294.501181 
L 274.258224 294.933964 
L 271.416788 295.286285 
L 268.575351 295.561338 
L 265.733914 295.775574 
L 262.892477 295.927209 
L 260.051041 296.003409 
L 257.209604 295.994485 
L 254.368167 295.895037 
L 251.52673 295.700612 
L 248.685294 295.399313 
L 245.843857 294.958099 
L 243.00242 294.356666 
L 240.160983 293.59583 
L 237.319547 292.705583 
L 234.47811 291.715396 
L 231.636673 290.638415 
L 228.795236 289.478131 
L 225.9538 288.221543 
L 223.112363 286.866278 
L 220.270926 285.441955 
L 217.42949 283.991007 
L 214.588053 282.532798 
L 211.746616 281.078415 
L 208.905179 279.631243 
L 206.063743 278.196408 
L 203.222306 276.77415 
L 200.380869 275.353714 
L 197.539432 273.942058 
L 194.697996 272.534257 
L 191.856559 271.14106 
L 189.015122 269.768987 
L 186.173685 268.380159 
L 183.332249 266.917813 
L 180.490812 265.392036 
L 177.649375 263.842765 
L 174.807938 262.277825 
L 171.966502 260.69145 
L 169.125065 259.090408 
L 166.283628 257.514571 
L 163.442191 256.001547 
L 160.600755 254.5473 
L 157.759318 253.151105 
L 154.917881 251.832508 
L 152.076444 250.618295 
L 149.235008 249.550816 
L 146.393571 248.669845 
L 143.552134 247.983607 
L 140.710697 247.481614 
L 137.869261 247.12819 
L 135.027824 246.867439 
L 132.186387 246.655935 
L 129.34495 246.51363 
L 126.503514 246.219061 
L 123.662077 245.875822 
L 120.82064 245.525549 
L 117.979203 245.18681 
L 115.137767 244.867425 
L 112.29633 244.566734 
L 109.454893 244.280893 
L 106.613456 244.003377 
L 103.77202 243.725178 
L 100.930583 243.438918 
L 98.089146 243.138016 
L 95.247709 242.815852 
L 92.406273 242.467826 
z
" clip-path="url(#p5cbc2299f8)" style="fill: #f5dcf4; fill-opacity: 0.5"/>
   </g>
   <g id="PolyCollection_3">
    <path d="M 92.406273 222.802044 
L 92.406273 228.579789 
L 95.247709 227.597246 
L 98.089146 226.639597 
L 100.930583 225.707067 
L 103.77202 224.798552 
L 106.613456 223.910933 
L 109.454893 223.040039 
L 112.29633 222.180108 
L 115.137767 221.326935 
L 117.979203 220.478988 
L 120.82064 219.639365 
L 123.662077 218.81543 
L 126.503514 218.015402 
L 129.34495 217.254314 
L 132.186387 216.599559 
L 135.027824 216.772171 
L 137.869261 217.234161 
L 140.710697 217.937732 
L 143.552134 218.822309 
L 146.393571 219.798505 
L 149.235008 220.825825 
L 152.076444 221.904612 
L 154.917881 223.098528 
L 157.759318 224.483974 
L 160.600755 226.145644 
L 163.442191 228.104767 
L 166.283628 230.294099 
L 169.125065 232.634853 
L 171.966502 235.074748 
L 174.807938 237.569636 
L 177.649375 240.051561 
L 180.490812 242.440667 
L 183.332249 244.67692 
L 186.173685 246.739437 
L 189.015122 248.655024 
L 191.856559 250.499732 
L 194.697996 252.365004 
L 197.539432 254.32809 
L 200.380869 256.421344 
L 203.222306 258.620561 
L 206.063743 260.887359 
L 208.905179 263.199627 
L 211.746616 265.550628 
L 214.588053 267.905937 
L 217.42949 270.230331 
L 220.270926 272.507641 
L 223.112363 274.729185 
L 225.9538 276.894715 
L 228.795236 279.031534 
L 231.636673 281.137332 
L 234.47811 283.208144 
L 237.319547 285.226515 
L 240.160983 287.175578 
L 243.00242 289.003802 
L 245.843857 290.663477 
L 248.685294 292.140919 
L 251.52673 293.437375 
L 254.368167 294.558835 
L 257.209604 295.493913 
L 260.051041 296.22463 
L 262.892477 296.751735 
L 265.733914 297.105105 
L 268.575351 297.322641 
L 271.416788 297.446668 
L 274.258224 297.524183 
L 277.099661 297.584208 
L 279.941098 297.642987 
L 282.782535 297.695637 
L 285.623971 297.724337 
L 288.465408 297.714163 
L 291.306845 297.661904 
L 294.148282 297.567642 
L 296.989718 297.437905 
L 299.831155 297.272404 
L 302.672592 297.076275 
L 305.514029 296.864035 
L 308.355465 296.654684 
L 311.196902 296.469858 
L 314.038339 296.32889 
L 316.879776 296.243113 
L 319.721212 296.216096 
L 322.562649 296.252411 
L 325.404086 296.354384 
L 328.245523 296.517412 
L 331.086959 296.723845 
L 333.928396 296.966193 
L 336.769833 297.25807 
L 339.61127 297.612028 
L 342.452706 298.035271 
L 345.294143 298.530179 
L 348.13558 299.087608 
L 350.977017 299.688966 
L 353.818453 300.315685 
L 356.65989 300.94808 
L 359.501327 301.571076 
L 362.342764 302.177881 
L 365.1842 302.749965 
L 368.025637 303.278688 
L 370.867074 303.761937 
L 373.70851 304.197539 
L 376.549947 304.586183 
L 379.391384 304.923176 
L 382.232821 305.217883 
L 385.074257 305.483455 
L 387.915694 305.73366 
L 390.757131 305.976291 
L 393.598568 306.206751 
L 396.440004 306.419138 
L 399.281441 306.612658 
L 402.122878 306.785817 
L 404.964315 306.933491 
L 407.805751 307.061855 
L 410.647188 307.183362 
L 413.488625 307.310352 
L 416.330062 307.44277 
L 419.171498 307.569471 
L 422.012935 307.678437 
L 424.854372 307.757055 
L 427.695809 307.797694 
L 430.537245 307.8 
L 433.378682 307.761661 
L 436.220119 307.679362 
L 439.061556 307.554266 
L 441.902992 307.397858 
L 444.744429 307.222081 
L 447.585866 307.044776 
L 450.427303 306.878772 
L 453.268739 306.733676 
L 456.110176 306.616445 
L 458.951613 306.529282 
L 461.79305 306.553739 
L 464.634486 306.595518 
L 467.475923 306.635746 
L 470.31736 306.671912 
L 473.158797 306.705324 
L 476.000233 306.738807 
L 478.84167 306.775365 
L 481.683107 306.817812 
L 484.524544 306.868108 
L 487.36598 306.927754 
L 490.207417 306.997856 
L 493.048854 307.079143 
L 495.890291 307.171828 
L 498.731727 307.275785 
L 498.731727 301.49804 
L 498.731727 301.49804 
L 495.890291 301.45437 
L 493.048854 301.421751 
L 490.207417 301.400303 
L 487.36598 301.389806 
L 484.524544 301.389522 
L 481.683107 301.398338 
L 478.84167 301.414744 
L 476.000233 301.436772 
L 473.158797 301.4616 
L 470.31736 301.486212 
L 467.475923 301.507775 
L 464.634486 301.524971 
L 461.79305 301.540301 
L 458.951613 301.572625 
L 456.110176 301.716233 
L 453.268739 301.889557 
L 450.427303 302.090385 
L 447.585866 302.311746 
L 444.744429 302.544019 
L 441.902992 302.774364 
L 439.061556 302.984921 
L 436.220119 303.163737 
L 433.378682 303.299307 
L 430.537245 303.390455 
L 427.695809 303.440478 
L 424.854372 303.45167 
L 422.012935 303.424367 
L 419.171498 303.366181 
L 416.330062 303.289706 
L 413.488625 303.206941 
L 410.647188 303.129006 
L 407.805751 303.055938 
L 404.964315 302.975373 
L 402.122878 302.874833 
L 399.281441 302.74812 
L 396.440004 302.600333 
L 393.598568 302.432941 
L 390.757131 302.246709 
L 387.915694 302.047513 
L 385.074257 301.839921 
L 382.232821 301.616112 
L 379.391384 301.362286 
L 376.549947 301.065263 
L 373.70851 300.715646 
L 370.867074 300.318096 
L 368.025637 299.871892 
L 365.1842 299.379172 
L 362.342764 298.842017 
L 359.501327 298.269033 
L 356.65989 297.678713 
L 353.818453 297.077818 
L 350.977017 296.481386 
L 348.13558 295.909067 
L 345.294143 295.379397 
L 342.452706 294.910932 
L 339.61127 294.512783 
L 336.769833 294.182535 
L 333.928396 293.912955 
L 331.086959 293.691457 
L 328.245523 293.5044 
L 325.404086 293.359242 
L 322.562649 293.273608 
L 319.721212 293.252074 
L 316.879776 293.292293 
L 314.038339 293.38967 
L 311.196902 293.540618 
L 308.355465 293.733785 
L 305.514029 293.949828 
L 302.672592 294.167096 
L 299.831155 294.366582 
L 296.989718 294.533763 
L 294.148282 294.6635 
L 291.306845 294.756082 
L 288.465408 294.804984 
L 285.623971 294.81013 
L 282.782535 294.774739 
L 279.941098 294.713746 
L 277.099661 294.644988 
L 274.258224 294.573363 
L 271.416788 294.482647 
L 268.575351 294.343838 
L 265.733914 294.109963 
L 262.892477 293.738722 
L 260.051041 293.192242 
L 257.209604 292.440675 
L 254.368167 291.4833 
L 251.52673 290.33813 
L 248.685294 289.016581 
L 245.843857 287.512695 
L 243.00242 285.825262 
L 240.160983 283.967998 
L 237.319547 281.988648 
L 234.47811 279.938778 
L 231.636673 277.835288 
L 228.795236 275.69567 
L 225.9538 273.523922 
L 223.112363 271.322389 
L 220.270926 269.0638 
L 217.42949 266.748438 
L 214.588053 264.385017 
L 211.746616 261.989738 
L 208.905179 259.597856 
L 206.063743 257.243825 
L 203.222306 254.934414 
L 200.380869 252.691761 
L 197.539432 250.55428 
L 194.697996 248.546199 
L 191.856559 246.635194 
L 189.015122 244.74404 
L 186.173685 242.781318 
L 183.332249 240.671003 
L 180.490812 238.386311 
L 177.649375 235.94815 
L 174.807938 233.416573 
L 171.966502 230.871458 
L 169.125065 228.380783 
L 166.283628 225.988713 
L 163.442191 223.747551 
L 160.600755 221.736099 
L 157.759318 220.02162 
L 154.917881 218.582902 
L 152.076444 217.335268 
L 149.235008 216.202331 
L 146.393571 215.120443 
L 143.552134 214.089279 
L 140.710697 213.149345 
L 137.869261 212.390042 
L 135.027824 211.871958 
L 132.186387 211.642903 
L 129.34495 212.240875 
L 126.503514 212.944855 
L 123.662077 213.68746 
L 120.82064 214.453665 
L 117.979203 215.235263 
L 115.137767 216.0249 
L 112.29633 216.819487 
L 109.454893 217.620565 
L 106.613456 218.432347 
L 103.77202 219.260604 
L 100.930583 220.109515 
L 98.089146 220.982205 
L 95.247709 221.879788 
L 92.406273 222.802044 
z
" clip-path="url(#p5cbc2299f8)" style="fill: #e0f3ed; fill-opacity: 0.5"/>
   </g>
   <g id="matplotlib.axis_1">
    <g id="xtick_1">
     <g id="line2d_1">
      <defs>
       <path id="m9a83756ea9" d="M 0 0 
L 0 3.5 
" style="stroke: #000000; stroke-width: 0.8"/>
      </defs>
      <g>
       <use xlink:href="#m9a83756ea9" x="92.406273" y="320.4" style="stroke: #000000; stroke-width: 0.8"/>
      </g>
     </g>
     <g id="text_1">
      <!-- 2010-01 -->
      <g transform="translate(77.12669 358.106586)rotate(-36)scale(0.1 -0.1)">
       <defs>
        <path id="DejaVuSans-32" d="M 1228 531 
L 3431 531 
L 3431 0 
L 469 0 
L 469 531 
Q 828 903 1448 1529 
Q 2069 2156 2228 2338 
Q 2531 2678 2651 2914 
Q 2772 3150 2772 3378 
Q 2772 3750 2511 3984 
Q 2250 4219 1831 4219 
Q 1534 4219 1204 4116 
Q 875 4013 500 3803 
L 500 4441 
Q 881 4594 1212 4672 
Q 1544 4750 1819 4750 
Q 2544 4750 2975 4387 
Q 3406 4025 3406 3419 
Q 3406 3131 3298 2873 
Q 3191 2616 2906 2266 
Q 2828 2175 2409 1742 
Q 1991 1309 1228 531 
z
" transform="scale(0.015625)"/>
        <path id="DejaVuSans-30" d="M 2034 4250 
Q 1547 4250 1301 3770 
Q 1056 3291 1056 2328 
Q 1056 1369 1301 889 
Q 1547 409 2034 409 
Q 2525 409 2770 889 
Q 3016 1369 3016 2328 
Q 3016 3291 2770 3770 
Q 2525 4250 2034 4250 
z
M 2034 4750 
Q 2819 4750 3233 4129 
Q 3647 3509 3647 2328 
Q 3647 1150 3233 529 
Q 2819 -91 2034 -91 
Q 1250 -91 836 529 
Q 422 1150 422 2328 
Q 422 3509 836 4129 
Q 1250 4750 2034 4750 
z
" transform="scale(0.015625)"/>
        <path id="DejaVuSans-31" d="M 794 531 
L 1825 531 
L 1825 4091 
L 703 3866 
L 703 4441 
L 1819 4666 
L 2450 4666 
L 2450 531 
L 3481 531 
L 3481 0 
L 794 0 
L 794 531 
z
" transform="scale(0.015625)"/>
        <path id="DejaVuSans-2d" d="M 313 2009 
L 1997 2009 
L 1997 1497 
L 313 1497 
L 313 2009 
z
" transform="scale(0.015625)"/>
       </defs>
       <use xlink:href="#DejaVuSans-32"/>
       <use xlink:href="#DejaVuSans-30" x="63.623047"/>
       <use xlink:href="#DejaVuSans-31" x="127.246094"/>
       <use xlink:href="#DejaVuSans-30" x="190.869141"/>
       <use xlink:href="#DejaVuSans-2d" x="254.492188"/>
       <use xlink:href="#DejaVuSans-30" x="290.576172"/>
       <use xlink:href="#DejaVuSans-31" x="354.199219"/>
      </g>
     </g>
    </g>
    <g id="xtick_2">
     <g id="line2d_2">
      <g>
       <use xlink:href="#m9a83756ea9" x="194.697996" y="320.4" style="stroke: #000000; stroke-width: 0.8"/>
      </g>
     </g>
     <g id="text_2">
      <!-- 2013-01 -->
      <g transform="translate(179.418413 358.106586)rotate(-36)scale(0.1 -0.1)">
       <defs>
        <path id="DejaVuSans-33" d="M 2597 2516 
Q 3050 2419 3304 2112 
Q 3559 1806 3559 1356 
Q 3559 666 3084 287 
Q 2609 -91 1734 -91 
Q 1441 -91 1130 -33 
Q 819 25 488 141 
L 488 750 
Q 750 597 1062 519 
Q 1375 441 1716 441 
Q 2309 441 2620 675 
Q 2931 909 2931 1356 
Q 2931 1769 2642 2001 
Q 2353 2234 1838 2234 
L 1294 2234 
L 1294 2753 
L 1863 2753 
Q 2328 2753 2575 2939 
Q 2822 3125 2822 3475 
Q 2822 3834 2567 4026 
Q 2313 4219 1838 4219 
Q 1578 4219 1281 4162 
Q 984 4106 628 3988 
L 628 4550 
Q 988 4650 1302 4700 
Q 1616 4750 1894 4750 
Q 2613 4750 3031 4423 
Q 3450 4097 3450 3541 
Q 3450 3153 3228 2886 
Q 3006 2619 2597 2516 
z
" transform="scale(0.015625)"/>
       </defs>
       <use xlink:href="#DejaVuSans-32"/>
       <use xlink:href="#DejaVuSans-30" x="63.623047"/>
       <use xlink:href="#DejaVuSans-31" x="127.246094"/>
       <use xlink:href="#DejaVuSans-33" x="190.869141"/>
       <use xlink:href="#DejaVuSans-2d" x="254.492188"/>
       <use xlink:href="#DejaVuSans-30" x="290.576172"/>
       <use xlink:href="#DejaVuSans-31" x="354.199219"/>
      </g>
     </g>
    </g>
    <g id="xtick_3">
     <g id="line2d_3">
      <g>
       <use xlink:href="#m9a83756ea9" x="296.989718" y="320.4" style="stroke: #000000; stroke-width: 0.8"/>
      </g>
     </g>
     <g id="text_3">
      <!-- 2016-01 -->
      <g transform="translate(281.710136 358.106586)rotate(-36)scale(0.1 -0.1)">
       <defs>
        <path id="DejaVuSans-36" d="M 2113 2584 
Q 1688 2584 1439 2293 
Q 1191 2003 1191 1497 
Q 1191 994 1439 701 
Q 1688 409 2113 409 
Q 2538 409 2786 701 
Q 3034 994 3034 1497 
Q 3034 2003 2786 2293 
Q 2538 2584 2113 2584 
z
M 3366 4563 
L 3366 3988 
Q 3128 4100 2886 4159 
Q 2644 4219 2406 4219 
Q 1781 4219 1451 3797 
Q 1122 3375 1075 2522 
Q 1259 2794 1537 2939 
Q 1816 3084 2150 3084 
Q 2853 3084 3261 2657 
Q 3669 2231 3669 1497 
Q 3669 778 3244 343 
Q 2819 -91 2113 -91 
Q 1303 -91 875 529 
Q 447 1150 447 2328 
Q 447 3434 972 4092 
Q 1497 4750 2381 4750 
Q 2619 4750 2861 4703 
Q 3103 4656 3366 4563 
z
" transform="scale(0.015625)"/>
       </defs>
       <use xlink:href="#DejaVuSans-32"/>
       <use xlink:href="#DejaVuSans-30" x="63.623047"/>
       <use xlink:href="#DejaVuSans-31" x="127.246094"/>
       <use xlink:href="#DejaVuSans-36" x="190.869141"/>
       <use xlink:href="#DejaVuSans-2d" x="254.492188"/>
       <use xlink:href="#DejaVuSans-30" x="290.576172"/>
       <use xlink:href="#DejaVuSans-31" x="354.199219"/>
      </g>
     </g>
    </g>
    <g id="xtick_4">
     <g id="line2d_4">
      <g>
       <use xlink:href="#m9a83756ea9" x="399.281441" y="320.4" style="stroke: #000000; stroke-width: 0.8"/>
      </g>
     </g>
     <g id="text_4">
      <!-- 2019-01 -->
      <g transform="translate(384.001858 358.106586)rotate(-36)scale(0.1 -0.1)">
       <defs>
        <path id="DejaVuSans-39" d="M 703 97 
L 703 672 
Q 941 559 1184 500 
Q 1428 441 1663 441 
Q 2288 441 2617 861 
Q 2947 1281 2994 2138 
Q 2813 1869 2534 1725 
Q 2256 1581 1919 1581 
Q 1219 1581 811 2004 
Q 403 2428 403 3163 
Q 403 3881 828 4315 
Q 1253 4750 1959 4750 
Q 2769 4750 3195 4129 
Q 3622 3509 3622 2328 
Q 3622 1225 3098 567 
Q 2575 -91 1691 -91 
Q 1453 -91 1209 -44 
Q 966 3 703 97 
z
M 1959 2075 
Q 2384 2075 2632 2365 
Q 2881 2656 2881 3163 
Q 2881 3666 2632 3958 
Q 2384 4250 1959 4250 
Q 1534 4250 1286 3958 
Q 1038 3666 1038 3163 
Q 1038 2656 1286 2365 
Q 1534 2075 1959 2075 
z
" transform="scale(0.015625)"/>
       </defs>
       <use xlink:href="#DejaVuSans-32"/>
       <use xlink:href="#DejaVuSans-30" x="63.623047"/>
       <use xlink:href="#DejaVuSans-31" x="127.246094"/>
       <use xlink:href="#DejaVuSans-39" x="190.869141"/>
       <use xlink:href="#DejaVuSans-2d" x="254.492188"/>
       <use xlink:href="#DejaVuSans-30" x="290.576172"/>
       <use xlink:href="#DejaVuSans-31" x="354.199219"/>
      </g>
     </g>
    </g>
    <g id="xtick_5">
     <g id="line2d_5">
      <g>
       <use xlink:href="#m9a83756ea9" x="501.573164" y="320.4" style="stroke: #000000; stroke-width: 0.8"/>
      </g>
     </g>
     <g id="text_5">
      <!-- 2021-12 -->
      <g transform="translate(486.293581 358.106586)rotate(-36)scale(0.1 -0.1)">
       <use xlink:href="#DejaVuSans-32"/>
       <use xlink:href="#DejaVuSans-30" x="63.623047"/>
       <use xlink:href="#DejaVuSans-32" x="127.246094"/>
       <use xlink:href="#DejaVuSans-31" x="190.869141"/>
       <use xlink:href="#DejaVuSans-2d" x="254.492188"/>
       <use xlink:href="#DejaVuSans-31" x="290.576172"/>
       <use xlink:href="#DejaVuSans-32" x="354.199219"/>
      </g>
     </g>
    </g>
   </g>
   <g id="matplotlib.axis_2">
    <g id="ytick_1">
     <g id="line2d_6">
      <defs>
       <path id="mca83f64a52" d="M 0 0 
L -3.5 0 
" style="stroke: #000000; stroke-width: 0.8"/>
      </defs>
      <g>
       <use xlink:href="#mca83f64a52" x="72.09" y="288.115942" style="stroke: #000000; stroke-width: 0.8"/>
      </g>
     </g>
     <g id="text_6">
      <!-- 0.005 -->
      <g transform="translate(36.461875 291.915161)scale(0.1 -0.1)">
       <defs>
        <path id="DejaVuSans-2e" d="M 684 794 
L 1344 794 
L 1344 0 
L 684 0 
L 684 794 
z
" transform="scale(0.015625)"/>
        <path id="DejaVuSans-35" d="M 691 4666 
L 3169 4666 
L 3169 4134 
L 1269 4134 
L 1269 2991 
Q 1406 3038 1543 3061 
Q 1681 3084 1819 3084 
Q 2600 3084 3056 2656 
Q 3513 2228 3513 1497 
Q 3513 744 3044 326 
Q 2575 -91 1722 -91 
Q 1428 -91 1123 -41 
Q 819 9 494 109 
L 494 744 
Q 775 591 1075 516 
Q 1375 441 1709 441 
Q 2250 441 2565 725 
Q 2881 1009 2881 1497 
Q 2881 1984 2565 2268 
Q 2250 2553 1709 2553 
Q 1456 2553 1204 2497 
Q 953 2441 691 2322 
L 691 4666 
z
" transform="scale(0.015625)"/>
       </defs>
       <use xlink:href="#DejaVuSans-30"/>
       <use xlink:href="#DejaVuSans-2e" x="63.623047"/>
       <use xlink:href="#DejaVuSans-30" x="95.410156"/>
       <use xlink:href="#DejaVuSans-30" x="159.033203"/>
       <use xlink:href="#DejaVuSans-35" x="222.65625"/>
      </g>
     </g>
    </g>
    <g id="ytick_2">
     <g id="line2d_7">
      <g>
       <use xlink:href="#mca83f64a52" x="72.09" y="255.315083" style="stroke: #000000; stroke-width: 0.8"/>
      </g>
     </g>
     <g id="text_7">
      <!-- 0.010 -->
      <g transform="translate(36.461875 259.114301)scale(0.1 -0.1)">
       <use xlink:href="#DejaVuSans-30"/>
       <use xlink:href="#DejaVuSans-2e" x="63.623047"/>
       <use xlink:href="#DejaVuSans-30" x="95.410156"/>
       <use xlink:href="#DejaVuSans-31" x="159.033203"/>
       <use xlink:href="#DejaVuSans-30" x="222.65625"/>
      </g>
     </g>
    </g>
    <g id="ytick_3">
     <g id="line2d_8">
      <g>
       <use xlink:href="#mca83f64a52" x="72.09" y="222.514223" style="stroke: #000000; stroke-width: 0.8"/>
      </g>
     </g>
     <g id="text_8">
      <!-- 0.015 -->
      <g transform="translate(36.461875 226.313442)scale(0.1 -0.1)">
       <use xlink:href="#DejaVuSans-30"/>
       <use xlink:href="#DejaVuSans-2e" x="63.623047"/>
       <use xlink:href="#DejaVuSans-30" x="95.410156"/>
       <use xlink:href="#DejaVuSans-31" x="159.033203"/>
       <use xlink:href="#DejaVuSans-35" x="222.65625"/>
      </g>
     </g>
    </g>
    <g id="ytick_4">
     <g id="line2d_9">
      <g>
       <use xlink:href="#mca83f64a52" x="72.09" y="189.713364" style="stroke: #000000; stroke-width: 0.8"/>
      </g>
     </g>
     <g id="text_9">
      <!-- 0.020 -->
      <g transform="translate(36.461875 193.512583)scale(0.1 -0.1)">
       <use xlink:href="#DejaVuSans-30"/>
       <use xlink:href="#DejaVuSans-2e" x="63.623047"/>
       <use xlink:href="#DejaVuSans-30" x="95.410156"/>
       <use xlink:href="#DejaVuSans-32" x="159.033203"/>
       <use xlink:href="#DejaVuSans-30" x="222.65625"/>
      </g>
     </g>
    </g>
    <g id="ytick_5">
     <g id="line2d_10">
      <g>
       <use xlink:href="#mca83f64a52" x="72.09" y="156.912504" style="stroke: #000000; stroke-width: 0.8"/>
      </g>
     </g>
     <g id="text_10">
      <!-- 0.025 -->
      <g transform="translate(36.461875 160.711723)scale(0.1 -0.1)">
       <use xlink:href="#DejaVuSans-30"/>
       <use xlink:href="#DejaVuSans-2e" x="63.623047"/>
       <use xlink:href="#DejaVuSans-30" x="95.410156"/>
       <use xlink:href="#DejaVuSans-32" x="159.033203"/>
       <use xlink:href="#DejaVuSans-35" x="222.65625"/>
      </g>
     </g>
    </g>
    <g id="ytick_6">
     <g id="line2d_11">
      <g>
       <use xlink:href="#mca83f64a52" x="72.09" y="124.111645" style="stroke: #000000; stroke-width: 0.8"/>
      </g>
     </g>
     <g id="text_11">
      <!-- 0.030 -->
      <g transform="translate(36.461875 127.910864)scale(0.1 -0.1)">
       <use xlink:href="#DejaVuSans-30"/>
       <use xlink:href="#DejaVuSans-2e" x="63.623047"/>
       <use xlink:href="#DejaVuSans-30" x="95.410156"/>
       <use xlink:href="#DejaVuSans-33" x="159.033203"/>
       <use xlink:href="#DejaVuSans-30" x="222.65625"/>
      </g>
     </g>
    </g>
    <g id="ytick_7">
     <g id="line2d_12">
      <g>
       <use xlink:href="#mca83f64a52" x="72.09" y="91.310786" style="stroke: #000000; stroke-width: 0.8"/>
      </g>
     </g>
     <g id="text_12">
      <!-- 0.035 -->
      <g transform="translate(36.461875 95.110004)scale(0.1 -0.1)">
       <use xlink:href="#DejaVuSans-30"/>
       <use xlink:href="#DejaVuSans-2e" x="63.623047"/>
       <use xlink:href="#DejaVuSans-30" x="95.410156"/>
       <use xlink:href="#DejaVuSans-33" x="159.033203"/>
       <use xlink:href="#DejaVuSans-35" x="222.65625"/>
      </g>
     </g>
    </g>
    <g id="ytick_8">
     <g id="line2d_13">
      <g>
       <use xlink:href="#mca83f64a52" x="72.09" y="58.509926" style="stroke: #000000; stroke-width: 0.8"/>
      </g>
     </g>
     <g id="text_13">
      <!-- 0.040 -->
      <g transform="translate(36.461875 62.309145)scale(0.1 -0.1)">
       <defs>
        <path id="DejaVuSans-34" d="M 2419 4116 
L 825 1625 
L 2419 1625 
L 2419 4116 
z
M 2253 4666 
L 3047 4666 
L 3047 1625 
L 3713 1625 
L 3713 1100 
L 3047 1100 
L 3047 0 
L 2419 0 
L 2419 1100 
L 313 1100 
L 313 1709 
L 2253 4666 
z
" transform="scale(0.015625)"/>
       </defs>
       <use xlink:href="#DejaVuSans-30"/>
       <use xlink:href="#DejaVuSans-2e" x="63.623047"/>
       <use xlink:href="#DejaVuSans-30" x="95.410156"/>
       <use xlink:href="#DejaVuSans-34" x="159.033203"/>
       <use xlink:href="#DejaVuSans-30" x="222.65625"/>
      </g>
     </g>
    </g>
    <g id="text_14">
     <!-- Intraclass distance -->
     <g transform="translate(29.342344 252.166406)rotate(-90)scale(0.15 -0.15)">
      <defs>
       <path id="DejaVuSans-49" d="M 628 4666 
L 1259 4666 
L 1259 0 
L 628 0 
L 628 4666 
z
" transform="scale(0.015625)"/>
       <path id="DejaVuSans-6e" d="M 3513 2113 
L 3513 0 
L 2938 0 
L 2938 2094 
Q 2938 2591 2744 2837 
Q 2550 3084 2163 3084 
Q 1697 3084 1428 2787 
Q 1159 2491 1159 1978 
L 1159 0 
L 581 0 
L 581 3500 
L 1159 3500 
L 1159 2956 
Q 1366 3272 1645 3428 
Q 1925 3584 2291 3584 
Q 2894 3584 3203 3211 
Q 3513 2838 3513 2113 
z
" transform="scale(0.015625)"/>
       <path id="DejaVuSans-74" d="M 1172 4494 
L 1172 3500 
L 2356 3500 
L 2356 3053 
L 1172 3053 
L 1172 1153 
Q 1172 725 1289 603 
Q 1406 481 1766 481 
L 2356 481 
L 2356 0 
L 1766 0 
Q 1100 0 847 248 
Q 594 497 594 1153 
L 594 3053 
L 172 3053 
L 172 3500 
L 594 3500 
L 594 4494 
L 1172 4494 
z
" transform="scale(0.015625)"/>
       <path id="DejaVuSans-72" d="M 2631 2963 
Q 2534 3019 2420 3045 
Q 2306 3072 2169 3072 
Q 1681 3072 1420 2755 
Q 1159 2438 1159 1844 
L 1159 0 
L 581 0 
L 581 3500 
L 1159 3500 
L 1159 2956 
Q 1341 3275 1631 3429 
Q 1922 3584 2338 3584 
Q 2397 3584 2469 3576 
Q 2541 3569 2628 3553 
L 2631 2963 
z
" transform="scale(0.015625)"/>
       <path id="DejaVuSans-61" d="M 2194 1759 
Q 1497 1759 1228 1600 
Q 959 1441 959 1056 
Q 959 750 1161 570 
Q 1363 391 1709 391 
Q 2188 391 2477 730 
Q 2766 1069 2766 1631 
L 2766 1759 
L 2194 1759 
z
M 3341 1997 
L 3341 0 
L 2766 0 
L 2766 531 
Q 2569 213 2275 61 
Q 1981 -91 1556 -91 
Q 1019 -91 701 211 
Q 384 513 384 1019 
Q 384 1609 779 1909 
Q 1175 2209 1959 2209 
L 2766 2209 
L 2766 2266 
Q 2766 2663 2505 2880 
Q 2244 3097 1772 3097 
Q 1472 3097 1187 3025 
Q 903 2953 641 2809 
L 641 3341 
Q 956 3463 1253 3523 
Q 1550 3584 1831 3584 
Q 2591 3584 2966 3190 
Q 3341 2797 3341 1997 
z
" transform="scale(0.015625)"/>
       <path id="DejaVuSans-63" d="M 3122 3366 
L 3122 2828 
Q 2878 2963 2633 3030 
Q 2388 3097 2138 3097 
Q 1578 3097 1268 2742 
Q 959 2388 959 1747 
Q 959 1106 1268 751 
Q 1578 397 2138 397 
Q 2388 397 2633 464 
Q 2878 531 3122 666 
L 3122 134 
Q 2881 22 2623 -34 
Q 2366 -91 2075 -91 
Q 1284 -91 818 406 
Q 353 903 353 1747 
Q 353 2603 823 3093 
Q 1294 3584 2113 3584 
Q 2378 3584 2631 3529 
Q 2884 3475 3122 3366 
z
" transform="scale(0.015625)"/>
       <path id="DejaVuSans-6c" d="M 603 4863 
L 1178 4863 
L 1178 0 
L 603 0 
L 603 4863 
z
" transform="scale(0.015625)"/>
       <path id="DejaVuSans-73" d="M 2834 3397 
L 2834 2853 
Q 2591 2978 2328 3040 
Q 2066 3103 1784 3103 
Q 1356 3103 1142 2972 
Q 928 2841 928 2578 
Q 928 2378 1081 2264 
Q 1234 2150 1697 2047 
L 1894 2003 
Q 2506 1872 2764 1633 
Q 3022 1394 3022 966 
Q 3022 478 2636 193 
Q 2250 -91 1575 -91 
Q 1294 -91 989 -36 
Q 684 19 347 128 
L 347 722 
Q 666 556 975 473 
Q 1284 391 1588 391 
Q 1994 391 2212 530 
Q 2431 669 2431 922 
Q 2431 1156 2273 1281 
Q 2116 1406 1581 1522 
L 1381 1569 
Q 847 1681 609 1914 
Q 372 2147 372 2553 
Q 372 3047 722 3315 
Q 1072 3584 1716 3584 
Q 2034 3584 2315 3537 
Q 2597 3491 2834 3397 
z
" transform="scale(0.015625)"/>
       <path id="DejaVuSans-20" transform="scale(0.015625)"/>
       <path id="DejaVuSans-64" d="M 2906 2969 
L 2906 4863 
L 3481 4863 
L 3481 0 
L 2906 0 
L 2906 525 
Q 2725 213 2448 61 
Q 2172 -91 1784 -91 
Q 1150 -91 751 415 
Q 353 922 353 1747 
Q 353 2572 751 3078 
Q 1150 3584 1784 3584 
Q 2172 3584 2448 3432 
Q 2725 3281 2906 2969 
z
M 947 1747 
Q 947 1113 1208 752 
Q 1469 391 1925 391 
Q 2381 391 2643 752 
Q 2906 1113 2906 1747 
Q 2906 2381 2643 2742 
Q 2381 3103 1925 3103 
Q 1469 3103 1208 2742 
Q 947 2381 947 1747 
z
" transform="scale(0.015625)"/>
       <path id="DejaVuSans-69" d="M 603 3500 
L 1178 3500 
L 1178 0 
L 603 0 
L 603 3500 
z
M 603 4863 
L 1178 4863 
L 1178 4134 
L 603 4134 
L 603 4863 
z
" transform="scale(0.015625)"/>
       <path id="DejaVuSans-65" d="M 3597 1894 
L 3597 1613 
L 953 1613 
Q 991 1019 1311 708 
Q 1631 397 2203 397 
Q 2534 397 2845 478 
Q 3156 559 3463 722 
L 3463 178 
Q 3153 47 2828 -22 
Q 2503 -91 2169 -91 
Q 1331 -91 842 396 
Q 353 884 353 1716 
Q 353 2575 817 3079 
Q 1281 3584 2069 3584 
Q 2775 3584 3186 3129 
Q 3597 2675 3597 1894 
z
M 3022 2063 
Q 3016 2534 2758 2815 
Q 2500 3097 2075 3097 
Q 1594 3097 1305 2825 
Q 1016 2553 972 2059 
L 3022 2063 
z
" transform="scale(0.015625)"/>
      </defs>
      <use xlink:href="#DejaVuSans-49"/>
      <use xlink:href="#DejaVuSans-6e" x="29.492188"/>
      <use xlink:href="#DejaVuSans-74" x="92.871094"/>
      <use xlink:href="#DejaVuSans-72" x="132.080078"/>
      <use xlink:href="#DejaVuSans-61" x="173.193359"/>
      <use xlink:href="#DejaVuSans-63" x="234.472656"/>
      <use xlink:href="#DejaVuSans-6c" x="289.453125"/>
      <use xlink:href="#DejaVuSans-61" x="317.236328"/>
      <use xlink:href="#DejaVuSans-73" x="378.515625"/>
      <use xlink:href="#DejaVuSans-73" x="430.615234"/>
      <use xlink:href="#DejaVuSans-20" x="482.714844"/>
      <use xlink:href="#DejaVuSans-64" x="514.501953"/>
      <use xlink:href="#DejaVuSans-69" x="577.978516"/>
      <use xlink:href="#DejaVuSans-73" x="605.761719"/>
      <use xlink:href="#DejaVuSans-74" x="657.861328"/>
      <use xlink:href="#DejaVuSans-61" x="697.070312"/>
      <use xlink:href="#DejaVuSans-6e" x="758.349609"/>
      <use xlink:href="#DejaVuSans-63" x="821.728516"/>
      <use xlink:href="#DejaVuSans-65" x="876.708984"/>
     </g>
    </g>
   </g>
   <g id="line2d_14">
    <path d="M 92.406273 241.329581 
L 120.82064 234.067551 
L 129.34495 231.598761 
L 132.186387 230.730132 
L 135.027824 230.009106 
L 137.869261 229.576158 
L 140.710697 229.502658 
L 143.552134 229.800776 
L 146.393571 230.440587 
L 149.235008 231.326486 
L 154.917881 233.46988 
L 160.600755 235.803134 
L 163.442191 237.072543 
L 166.283628 238.472211 
L 169.125065 240.02184 
L 171.966502 241.741084 
L 174.807938 243.624258 
L 186.173685 251.662149 
L 189.015122 253.208043 
L 191.856559 254.336979 
L 194.697996 255.049699 
L 197.539432 255.398895 
L 200.380869 255.429622 
L 203.222306 255.177157 
L 206.063743 254.658134 
L 208.905179 253.896471 
L 211.746616 252.933515 
L 214.588053 251.811563 
L 217.42949 250.52021 
L 220.270926 248.998744 
L 223.112363 247.184943 
L 225.9538 245.067654 
L 228.795236 242.670107 
L 231.636673 240.05561 
L 237.319547 234.375107 
L 243.00242 228.216175 
L 248.685294 221.86118 
L 254.368167 215.912807 
L 257.209604 213.175354 
L 260.051041 210.602914 
L 262.892477 208.200443 
L 265.733914 205.969422 
L 271.416788 201.923105 
L 277.099661 198.030961 
L 279.941098 195.945138 
L 282.782535 193.704749 
L 285.623971 191.304966 
L 288.465408 188.746568 
L 291.306845 186.014177 
L 296.989718 180.069565 
L 302.672592 173.613524 
L 308.355465 166.648383 
L 314.038339 159.080801 
L 325.404086 143.475942 
L 328.245523 139.871868 
L 331.086959 136.471236 
L 333.928396 133.306364 
L 336.769833 130.429359 
L 339.61127 127.857875 
L 342.452706 125.572228 
L 345.294143 123.533967 
L 348.13558 121.688801 
L 353.818453 118.346845 
L 362.342764 113.518745 
L 368.025637 110.039255 
L 376.549947 104.347 
L 393.598568 92.676183 
L 399.281441 89.284625 
L 402.122878 87.771544 
L 404.964315 86.394802 
L 410.647188 84.014672 
L 413.488625 83.014181 
L 416.330062 82.170834 
L 419.171498 81.521022 
L 422.012935 81.106708 
L 424.854372 80.978693 
L 427.695809 81.14037 
L 430.537245 81.528523 
L 441.902992 83.612796 
L 444.744429 83.825891 
L 447.585866 83.763744 
L 450.427303 83.438241 
L 453.268739 82.890882 
L 456.110176 82.167556 
L 458.951613 81.307629 
L 476.000233 72.990721 
L 481.683107 69.930371 
L 490.207417 65.036675 
L 498.731727 59.926491 
L 498.731727 59.926491 
" clip-path="url(#p5cbc2299f8)" style="fill: none; stroke: #e789c3; stroke-width: 1.2; stroke-linecap: square"/>
   </g>
   <g id="line2d_15">
    <path d="M 92.406273 245.456072 
L 120.82064 237.771201 
L 129.34495 235.17938 
L 132.186387 234.270198 
L 135.027824 233.508859 
L 137.869261 233.035849 
L 140.710697 232.922545 
L 143.552134 233.181127 
L 146.393571 233.781679 
L 149.235008 234.628606 
L 154.917881 236.694959 
L 160.600755 238.95245 
L 163.442191 240.184486 
L 166.283628 241.547136 
L 169.125065 243.060115 
L 171.966502 244.743092 
L 174.807938 246.590393 
L 186.173685 254.489055 
L 189.015122 256.001285 
L 191.856559 257.097048 
L 194.697996 257.777106 
L 197.539432 258.094167 
L 200.380869 258.093305 
L 203.222306 257.809819 
L 206.063743 257.260361 
L 208.905179 256.468872 
L 211.746616 255.476718 
L 214.588053 254.326219 
L 217.42949 253.006993 
L 220.270926 251.45835 
L 223.112363 249.618092 
L 225.9538 247.475089 
L 228.795236 245.052595 
L 231.636673 242.413943 
L 237.319547 236.687606 
L 243.00242 230.486302 
L 248.685294 224.092597 
L 254.368167 218.109367 
L 257.209604 215.35599 
L 260.051041 212.768659 
L 262.892477 210.35235 
L 265.733914 208.108566 
L 271.416788 204.040022 
L 277.099661 200.130164 
L 279.941098 198.037214 
L 282.782535 195.790867 
L 285.623971 193.386306 
L 288.465408 190.824316 
L 291.306845 188.089528 
L 296.989718 182.143716 
L 302.672592 175.691272 
L 308.355465 168.734502 
L 314.038339 161.180004 
L 322.562649 149.384847 
L 328.245523 142.023775 
L 331.086959 138.63698 
L 333.928396 135.487 
L 336.769833 132.625919 
L 339.61127 130.07137 
L 342.452706 127.803644 
L 345.294143 125.784269 
L 348.13558 123.958928 
L 353.818453 120.659344 
L 362.342764 115.901233 
L 368.025637 112.472404 
L 376.549947 106.861656 
L 393.598568 95.371454 
L 399.281441 92.044695 
L 402.122878 90.564786 
L 404.964315 89.221708 
L 410.647188 86.91031 
L 413.488625 85.944856 
L 416.330062 85.13697 
L 419.171498 84.52303 
L 422.012935 84.144984 
L 424.854372 84.053618 
L 427.695809 84.252313 
L 430.537245 84.677839 
L 441.902992 86.914916 
L 444.744429 87.166982 
L 447.585866 87.144095 
L 450.427303 86.858128 
L 453.268739 86.350573 
L 456.110176 85.667309 
L 458.951613 84.847695 
L 476.000233 76.777457 
L 481.683107 73.800983 
L 490.207417 69.034472 
L 498.731727 64.052981 
L 498.731727 64.052981 
" clip-path="url(#p5cbc2299f8)" style="fill: none; stroke: #e789c3; stroke-width: 0.2; stroke-linecap: square"/>
   </g>
   <g id="line2d_16">
    <path d="M 92.406273 237.20309 
L 120.82064 230.363902 
L 129.34495 228.018141 
L 132.186387 227.190067 
L 135.027824 226.509353 
L 137.869261 226.116467 
L 140.710697 226.082771 
L 143.552134 226.420426 
L 146.393571 227.099495 
L 149.235008 228.024366 
L 154.917881 230.2448 
L 160.600755 232.653818 
L 163.442191 233.9606 
L 166.283628 235.397286 
L 169.125065 236.983564 
L 171.966502 238.739077 
L 174.807938 240.658122 
L 186.173685 248.835243 
L 189.015122 250.414801 
L 191.856559 251.576909 
L 194.697996 252.322292 
L 197.539432 252.703623 
L 200.380869 252.765938 
L 203.222306 252.544494 
L 206.063743 252.055906 
L 208.905179 251.324071 
L 211.746616 250.390312 
L 214.588053 249.296907 
L 217.42949 248.033427 
L 220.270926 246.539138 
L 223.112363 244.751794 
L 225.9538 242.66022 
L 228.795236 240.287618 
L 231.636673 237.697276 
L 237.319547 232.062608 
L 243.00242 225.946048 
L 248.685294 219.629764 
L 254.368167 213.716247 
L 257.209604 210.994718 
L 260.051041 208.43717 
L 262.892477 206.048536 
L 265.733914 203.830278 
L 271.416788 199.806188 
L 277.099661 195.931757 
L 279.941098 193.853061 
L 282.782535 191.618631 
L 285.623971 189.223627 
L 288.465408 186.66882 
L 291.306845 183.938826 
L 296.989718 177.995415 
L 302.672592 171.535775 
L 308.355465 164.562265 
L 314.038339 156.981597 
L 325.404086 141.336798 
L 328.245523 137.719961 
L 331.086959 134.305492 
L 333.928396 131.125728 
L 336.769833 128.232798 
L 339.61127 125.644381 
L 342.452706 123.340812 
L 345.294143 121.283665 
L 350.977017 117.685343 
L 365.1842 109.413739 
L 370.867074 105.715797 
L 379.391384 99.857964 
L 390.757131 91.855549 
L 396.440004 88.197827 
L 402.122878 84.978302 
L 404.964315 83.567897 
L 410.647188 81.119033 
L 413.488625 80.083507 
L 416.330062 79.204698 
L 419.171498 78.519015 
L 422.012935 78.068433 
L 424.854372 77.903768 
L 427.695809 78.028427 
L 430.537245 78.379207 
L 441.902992 80.310676 
L 444.744429 80.484799 
L 447.585866 80.383394 
L 450.427303 80.018355 
L 453.268739 79.431192 
L 456.110176 78.667802 
L 458.951613 77.767564 
L 476.000233 69.203985 
L 481.683107 66.059759 
L 490.207417 61.038879 
L 498.731727 55.8 
L 498.731727 55.8 
" clip-path="url(#p5cbc2299f8)" style="fill: none; stroke: #e789c3; stroke-width: 0.2; stroke-linecap: square"/>
   </g>
   <g id="line2d_17">
    <path d="M 92.406273 245.037514 
L 100.930583 245.928464 
L 120.82064 247.831921 
L 129.34495 248.743388 
L 135.027824 249.046839 
L 140.710697 249.611278 
L 143.552134 250.088651 
L 146.393571 250.750442 
L 149.235008 251.607143 
L 152.076444 252.650539 
L 157.759318 255.135764 
L 163.442191 257.939445 
L 169.125065 260.982432 
L 180.490812 267.195235 
L 186.173685 270.140556 
L 206.063743 279.816892 
L 225.9538 289.720724 
L 231.636673 292.107019 
L 237.319547 294.145645 
L 240.160983 295.022421 
L 243.00242 295.770341 
L 245.843857 296.359429 
L 248.685294 296.788882 
L 254.368167 297.2629 
L 260.051041 297.352082 
L 265.733914 297.107682 
L 271.416788 296.604552 
L 277.099661 295.808417 
L 285.623971 294.223759 
L 294.148282 292.420629 
L 308.355465 289.132882 
L 316.879776 287.470646 
L 328.245523 285.58465 
L 339.61127 283.819851 
L 348.13558 282.781466 
L 368.025637 280.518953 
L 376.549947 279.437598 
L 382.232821 279.077276 
L 387.915694 279.082368 
L 393.598568 279.396932 
L 413.488625 280.99576 
L 419.171498 281.007171 
L 441.902992 280.40399 
L 447.585866 279.817544 
L 453.268739 278.932955 
L 493.048854 271.683403 
L 498.731727 270.551015 
L 498.731727 270.551015 
" clip-path="url(#p5cbc2299f8)" style="fill: none; stroke: #cc4ec6; stroke-width: 1.2; stroke-linecap: square"/>
   </g>
   <g id="line2d_18">
    <path d="M 92.406273 247.607201 
L 100.930583 248.41801 
L 120.82064 250.138293 
L 129.34495 250.973145 
L 135.027824 251.226239 
L 140.710697 251.740943 
L 143.552134 252.193695 
L 146.393571 252.831038 
L 149.235008 253.663471 
L 152.076444 254.682783 
L 157.759318 257.120424 
L 163.442191 259.877344 
L 169.125065 262.874456 
L 180.490812 268.998435 
L 186.173685 271.900954 
L 206.063743 281.437376 
L 225.9538 291.219904 
L 231.636673 293.575623 
L 237.319547 295.585706 
L 240.160983 296.449011 
L 243.00242 297.184016 
L 245.843857 297.760758 
L 248.685294 298.178451 
L 254.368167 298.630763 
L 260.051041 298.700755 
L 265.733914 298.43979 
L 271.416788 297.922819 
L 277.099661 297.115653 
L 285.623971 295.519871 
L 294.148282 293.712264 
L 308.355465 290.43197 
L 316.879776 288.783042 
L 328.245523 286.924706 
L 339.61127 285.198259 
L 348.13558 284.195141 
L 368.025637 282.034147 
L 376.549947 281.003549 
L 382.232821 280.679186 
L 387.915694 280.721805 
L 393.598568 281.075357 
L 413.488625 282.820777 
L 419.171498 282.87661 
L 441.902992 282.460318 
L 447.585866 281.922588 
L 453.268739 281.087407 
L 493.048854 274.199562 
L 498.731727 273.120703 
L 498.731727 273.120703 
" clip-path="url(#p5cbc2299f8)" style="fill: none; stroke: #cc4ec6; stroke-width: 0.2; stroke-linecap: square"/>
   </g>
   <g id="line2d_19">
    <path d="M 92.406273 242.467826 
L 100.930583 243.438918 
L 120.82064 245.525549 
L 129.34495 246.51363 
L 135.027824 246.867439 
L 140.710697 247.481614 
L 143.552134 247.983607 
L 146.393571 248.669845 
L 149.235008 249.550816 
L 152.076444 250.618295 
L 157.759318 253.151105 
L 163.442191 256.001547 
L 169.125065 259.090408 
L 180.490812 265.392036 
L 186.173685 268.380159 
L 206.063743 278.196408 
L 225.9538 288.221543 
L 231.636673 290.638415 
L 237.319547 292.705583 
L 240.160983 293.59583 
L 243.00242 294.356666 
L 245.843857 294.958099 
L 248.685294 295.399313 
L 254.368167 295.895037 
L 260.051041 296.003409 
L 265.733914 295.775574 
L 271.416788 295.286285 
L 277.099661 294.501181 
L 285.623971 292.927647 
L 294.148282 291.128994 
L 308.355465 287.833795 
L 316.879776 286.158251 
L 328.245523 284.244594 
L 339.61127 282.441442 
L 348.13558 281.367791 
L 368.025637 279.003759 
L 376.549947 277.871647 
L 382.232821 277.475366 
L 387.915694 277.442932 
L 393.598568 277.718507 
L 413.488625 279.170742 
L 419.171498 279.137733 
L 441.902992 278.347662 
L 447.585866 277.712499 
L 453.268739 276.778503 
L 490.207417 269.746813 
L 498.731727 267.981328 
L 498.731727 267.981328 
" clip-path="url(#p5cbc2299f8)" style="fill: none; stroke: #cc4ec6; stroke-width: 0.2; stroke-linecap: square"/>
   </g>
   <g id="line2d_20">
    <path d="M 92.406273 225.690917 
L 100.930583 222.908291 
L 112.29633 219.499797 
L 126.503514 215.480129 
L 132.186387 214.121231 
L 135.027824 214.322065 
L 137.869261 214.812102 
L 140.710697 215.543538 
L 146.393571 217.459474 
L 152.076444 219.61994 
L 154.917881 220.840715 
L 157.759318 222.252797 
L 160.600755 223.940871 
L 163.442191 225.926159 
L 166.283628 228.141406 
L 171.966502 232.973103 
L 180.490812 240.413489 
L 183.332249 242.673962 
L 186.173685 244.760377 
L 200.380869 254.556552 
L 206.063743 259.065592 
L 223.112363 273.025787 
L 231.636673 279.48631 
L 237.319547 283.607581 
L 243.00242 287.414532 
L 245.843857 289.088086 
L 248.685294 290.57875 
L 251.52673 291.887752 
L 254.368167 293.021068 
L 257.209604 293.967294 
L 260.051041 294.708436 
L 262.892477 295.245228 
L 265.733914 295.607534 
L 271.416788 295.964658 
L 282.782535 296.235188 
L 288.465408 296.259574 
L 294.148282 296.115571 
L 302.672592 295.621686 
L 314.038339 294.85928 
L 319.721212 294.734085 
L 325.404086 294.856813 
L 331.086959 295.207651 
L 336.769833 295.720303 
L 342.452706 296.473102 
L 348.13558 297.498338 
L 368.025637 301.57529 
L 373.70851 302.456593 
L 379.391384 303.142731 
L 387.915694 303.890586 
L 399.281441 304.680389 
L 407.805751 305.058896 
L 424.854372 305.604362 
L 430.537245 305.595227 
L 436.220119 305.42155 
L 444.744429 304.88305 
L 456.110176 304.166339 
L 458.951613 304.050954 
L 481.683107 304.108075 
L 495.890291 304.313099 
L 498.731727 304.386913 
L 498.731727 304.386913 
" clip-path="url(#p5cbc2299f8)" style="fill: none; stroke: #66c2a4; stroke-width: 1.2; stroke-linecap: square"/>
   </g>
   <g id="line2d_21">
    <path d="M 92.406273 228.579789 
L 100.930583 225.707067 
L 112.29633 222.180108 
L 126.503514 218.015402 
L 132.186387 216.599559 
L 135.027824 216.772171 
L 137.869261 217.234161 
L 140.710697 217.937732 
L 146.393571 219.798505 
L 152.076444 221.904612 
L 154.917881 223.098528 
L 157.759318 224.483974 
L 160.600755 226.145644 
L 163.442191 228.104767 
L 166.283628 230.294099 
L 171.966502 235.074748 
L 180.490812 242.440667 
L 183.332249 244.67692 
L 186.173685 246.739437 
L 200.380869 256.421344 
L 206.063743 260.887359 
L 223.112363 274.729185 
L 231.636673 281.137332 
L 237.319547 285.226515 
L 243.00242 289.003802 
L 245.843857 290.663477 
L 248.685294 292.140919 
L 251.52673 293.437375 
L 254.368167 294.558835 
L 257.209604 295.493913 
L 260.051041 296.22463 
L 262.892477 296.751735 
L 265.733914 297.105105 
L 271.416788 297.446668 
L 285.623971 297.724337 
L 291.306845 297.661904 
L 299.831155 297.272404 
L 314.038339 296.32889 
L 319.721212 296.216096 
L 325.404086 296.354384 
L 331.086959 296.723845 
L 336.769833 297.25807 
L 342.452706 298.035271 
L 348.13558 299.087608 
L 368.025637 303.278688 
L 373.70851 304.197539 
L 379.391384 304.923176 
L 387.915694 305.73366 
L 399.281441 306.612658 
L 407.805751 307.061855 
L 424.854372 307.757055 
L 430.537245 307.8 
L 436.220119 307.679362 
L 444.744429 307.222081 
L 456.110176 306.616445 
L 458.951613 306.529282 
L 481.683107 306.817812 
L 495.890291 307.171828 
L 498.731727 307.275785 
L 498.731727 307.275785 
" clip-path="url(#p5cbc2299f8)" style="fill: none; stroke: #66c2a4; stroke-width: 0.2; stroke-linecap: square"/>
   </g>
   <g id="line2d_22">
    <path d="M 92.406273 222.802044 
L 100.930583 220.109515 
L 112.29633 216.819487 
L 126.503514 212.944855 
L 132.186387 211.642903 
L 135.027824 211.871958 
L 137.869261 212.390042 
L 140.710697 213.149345 
L 146.393571 215.120443 
L 152.076444 217.335268 
L 154.917881 218.582902 
L 157.759318 220.02162 
L 160.600755 221.736099 
L 163.442191 223.747551 
L 166.283628 225.988713 
L 171.966502 230.871458 
L 180.490812 238.386311 
L 183.332249 240.671003 
L 186.173685 242.781318 
L 200.380869 252.691761 
L 206.063743 257.243825 
L 223.112363 271.322389 
L 231.636673 277.835288 
L 237.319547 281.988648 
L 243.00242 285.825262 
L 245.843857 287.512695 
L 248.685294 289.016581 
L 251.52673 290.33813 
L 254.368167 291.4833 
L 257.209604 292.440675 
L 260.051041 293.192242 
L 262.892477 293.738722 
L 265.733914 294.109963 
L 271.416788 294.482647 
L 282.782535 294.774739 
L 288.465408 294.804984 
L 294.148282 294.6635 
L 302.672592 294.167096 
L 314.038339 293.38967 
L 319.721212 293.252074 
L 325.404086 293.359242 
L 331.086959 293.691457 
L 336.769833 294.182535 
L 342.452706 294.910932 
L 348.13558 295.909067 
L 368.025637 299.871892 
L 373.70851 300.715646 
L 379.391384 301.362286 
L 387.915694 302.047513 
L 399.281441 302.74812 
L 407.805751 303.055938 
L 424.854372 303.45167 
L 430.537245 303.390455 
L 436.220119 303.163737 
L 444.744429 302.544019 
L 456.110176 301.716233 
L 458.951613 301.572625 
L 484.524544 301.389522 
L 498.731727 301.49804 
L 498.731727 301.49804 
" clip-path="url(#p5cbc2299f8)" style="fill: none; stroke: #66c2a4; stroke-width: 0.2; stroke-linecap: square"/>
   </g>
   <g id="patch_3">
    <path d="M 72.09 320.4 
L 72.09 43.2 
" style="fill: none; stroke: #000000; stroke-width: 1.2; stroke-linejoin: miter; stroke-linecap: square"/>
   </g>
   <g id="patch_4">
    <path d="M 519.048 320.4 
L 519.048 43.2 
" style="fill: none; stroke: #000000; stroke-width: 1.2; stroke-linejoin: miter; stroke-linecap: square"/>
   </g>
   <g id="patch_5">
    <path d="M 72.09 320.4 
L 519.048 320.4 
" style="fill: none; stroke: #000000; stroke-width: 1.2; stroke-linejoin: miter; stroke-linecap: square"/>
   </g>
   <g id="patch_6">
    <path d="M 72.09 43.2 
L 519.048 43.2 
" style="fill: none; stroke: #000000; stroke-width: 1.2; stroke-linejoin: miter; stroke-linecap: square"/>
   </g>
   <g id="text_15">
    <!-- All(44) -->
    <g transform="translate(274.16775 37.2)scale(0.13 -0.13)">
     <defs>
      <path id="DejaVuSans-41" d="M 2188 4044 
L 1331 1722 
L 3047 1722 
L 2188 4044 
z
M 1831 4666 
L 2547 4666 
L 4325 0 
L 3669 0 
L 3244 1197 
L 1141 1197 
L 716 0 
L 50 0 
L 1831 4666 
z
" transform="scale(0.015625)"/>
      <path id="DejaVuSans-28" d="M 1984 4856 
Q 1566 4138 1362 3434 
Q 1159 2731 1159 2009 
Q 1159 1288 1364 580 
Q 1569 -128 1984 -844 
L 1484 -844 
Q 1016 -109 783 600 
Q 550 1309 550 2009 
Q 550 2706 781 3412 
Q 1013 4119 1484 4856 
L 1984 4856 
z
" transform="scale(0.015625)"/>
      <path id="DejaVuSans-29" d="M 513 4856 
L 1013 4856 
Q 1481 4119 1714 3412 
Q 1947 2706 1947 2009 
Q 1947 1309 1714 600 
Q 1481 -109 1013 -844 
L 513 -844 
Q 928 -128 1133 580 
Q 1338 1288 1338 2009 
Q 1338 2731 1133 3434 
Q 928 4138 513 4856 
z
" transform="scale(0.015625)"/>
     </defs>
     <use xlink:href="#DejaVuSans-41"/>
     <use xlink:href="#DejaVuSans-6c" x="68.408203"/>
     <use xlink:href="#DejaVuSans-6c" x="96.191406"/>
     <use xlink:href="#DejaVuSans-28" x="123.974609"/>
     <use xlink:href="#DejaVuSans-34" x="162.988281"/>
     <use xlink:href="#DejaVuSans-34" x="226.611328"/>
     <use xlink:href="#DejaVuSans-29" x="290.234375"/>
    </g>
   </g>
   <g id="legend_1">
    <g id="patch_7">
     <path d="M 242.293688 105.64125 
L 348.844313 105.64125 
Q 351.244312 105.64125 351.244312 103.24125 
L 351.244312 51.6 
Q 351.244312 49.2 348.844313 49.2 
L 242.293688 49.2 
Q 239.893687 49.2 239.893687 51.6 
L 239.893687 103.24125 
Q 239.893687 105.64125 242.293688 105.64125 
z
" style="fill: #ffffff; opacity: 0.5; stroke: #cccccc; stroke-linejoin: miter"/>
    </g>
    <g id="line2d_23">
     <path d="M 244.693688 58.918125 
L 256.693688 58.918125 
L 268.693688 58.918125 
" style="fill: none; stroke: #e789c3; stroke-width: 1.2; stroke-linecap: square"/>
    </g>
    <g id="text_16">
     <!-- Valence -->
     <g transform="translate(278.293688 63.118125)scale(0.12 -0.12)">
      <defs>
       <path id="DejaVuSans-56" d="M 1831 0 
L 50 4666 
L 709 4666 
L 2188 738 
L 3669 4666 
L 4325 4666 
L 2547 0 
L 1831 0 
z
" transform="scale(0.015625)"/>
      </defs>
      <use xlink:href="#DejaVuSans-56"/>
      <use xlink:href="#DejaVuSans-61" x="60.658203"/>
      <use xlink:href="#DejaVuSans-6c" x="121.9375"/>
      <use xlink:href="#DejaVuSans-65" x="149.720703"/>
      <use xlink:href="#DejaVuSans-6e" x="211.244141"/>
      <use xlink:href="#DejaVuSans-63" x="274.623047"/>
      <use xlink:href="#DejaVuSans-65" x="329.603516"/>
     </g>
    </g>
    <g id="line2d_24">
     <path d="M 244.693688 76.531875 
L 256.693688 76.531875 
L 268.693688 76.531875 
" style="fill: none; stroke: #cc4ec6; stroke-width: 1.2; stroke-linecap: square"/>
    </g>
    <g id="text_17">
     <!-- Arousal -->
     <g transform="translate(278.293688 80.731875)scale(0.12 -0.12)">
      <defs>
       <path id="DejaVuSans-6f" d="M 1959 3097 
Q 1497 3097 1228 2736 
Q 959 2375 959 1747 
Q 959 1119 1226 758 
Q 1494 397 1959 397 
Q 2419 397 2687 759 
Q 2956 1122 2956 1747 
Q 2956 2369 2687 2733 
Q 2419 3097 1959 3097 
z
M 1959 3584 
Q 2709 3584 3137 3096 
Q 3566 2609 3566 1747 
Q 3566 888 3137 398 
Q 2709 -91 1959 -91 
Q 1206 -91 779 398 
Q 353 888 353 1747 
Q 353 2609 779 3096 
Q 1206 3584 1959 3584 
z
" transform="scale(0.015625)"/>
       <path id="DejaVuSans-75" d="M 544 1381 
L 544 3500 
L 1119 3500 
L 1119 1403 
Q 1119 906 1312 657 
Q 1506 409 1894 409 
Q 2359 409 2629 706 
Q 2900 1003 2900 1516 
L 2900 3500 
L 3475 3500 
L 3475 0 
L 2900 0 
L 2900 538 
Q 2691 219 2414 64 
Q 2138 -91 1772 -91 
Q 1169 -91 856 284 
Q 544 659 544 1381 
z
M 1991 3584 
L 1991 3584 
z
" transform="scale(0.015625)"/>
      </defs>
      <use xlink:href="#DejaVuSans-41"/>
      <use xlink:href="#DejaVuSans-72" x="68.408203"/>
      <use xlink:href="#DejaVuSans-6f" x="107.271484"/>
      <use xlink:href="#DejaVuSans-75" x="168.453125"/>
      <use xlink:href="#DejaVuSans-73" x="231.832031"/>
      <use xlink:href="#DejaVuSans-61" x="283.931641"/>
      <use xlink:href="#DejaVuSans-6c" x="345.210938"/>
     </g>
    </g>
    <g id="line2d_25">
     <path d="M 244.693688 94.145625 
L 256.693688 94.145625 
L 268.693688 94.145625 
" style="fill: none; stroke: #66c2a4; stroke-width: 1.2; stroke-linecap: square"/>
    </g>
    <g id="text_18">
     <!-- Dominance -->
     <g transform="translate(278.293688 98.345625)scale(0.12 -0.12)">
      <defs>
       <path id="DejaVuSans-44" d="M 1259 4147 
L 1259 519 
L 2022 519 
Q 2988 519 3436 956 
Q 3884 1394 3884 2338 
Q 3884 3275 3436 3711 
Q 2988 4147 2022 4147 
L 1259 4147 
z
M 628 4666 
L 1925 4666 
Q 3281 4666 3915 4102 
Q 4550 3538 4550 2338 
Q 4550 1131 3912 565 
Q 3275 0 1925 0 
L 628 0 
L 628 4666 
z
" transform="scale(0.015625)"/>
       <path id="DejaVuSans-6d" d="M 3328 2828 
Q 3544 3216 3844 3400 
Q 4144 3584 4550 3584 
Q 5097 3584 5394 3201 
Q 5691 2819 5691 2113 
L 5691 0 
L 5113 0 
L 5113 2094 
Q 5113 2597 4934 2840 
Q 4756 3084 4391 3084 
Q 3944 3084 3684 2787 
Q 3425 2491 3425 1978 
L 3425 0 
L 2847 0 
L 2847 2094 
Q 2847 2600 2669 2842 
Q 2491 3084 2119 3084 
Q 1678 3084 1418 2786 
Q 1159 2488 1159 1978 
L 1159 0 
L 581 0 
L 581 3500 
L 1159 3500 
L 1159 2956 
Q 1356 3278 1631 3431 
Q 1906 3584 2284 3584 
Q 2666 3584 2933 3390 
Q 3200 3197 3328 2828 
z
" transform="scale(0.015625)"/>
      </defs>
      <use xlink:href="#DejaVuSans-44"/>
      <use xlink:href="#DejaVuSans-6f" x="77.001953"/>
      <use xlink:href="#DejaVuSans-6d" x="138.183594"/>
      <use xlink:href="#DejaVuSans-69" x="235.595703"/>
      <use xlink:href="#DejaVuSans-6e" x="263.378906"/>
      <use xlink:href="#DejaVuSans-61" x="326.757812"/>
      <use xlink:href="#DejaVuSans-6e" x="388.037109"/>
      <use xlink:href="#DejaVuSans-63" x="451.416016"/>
      <use xlink:href="#DejaVuSans-65" x="506.396484"/>
     </g>
    </g>
   </g>
  </g>
 </g>
 <defs>
  <clipPath id="p5cbc2299f8">
   <rect x="72.09" y="43.2" width="446.958" height="277.2"/>
  </clipPath>
 </defs>
</svg>
